<mxfile host="app.diagrams.net" modified="2022-05-19T12:50:49.046Z" agent="5.0 (Windows NT 10.0; Win64; x64) AppleWebKit/537.36 (KHTML, like Gecko) Chrome/101.0.0.0 Safari/537.36" etag="Do6WteXCVCwkMKaSDMuU" version="18.0.7" type="github">
  <diagram id="jAwa5ShCbrNglqhKO4Xl" name="Page-1">
    <mxGraphModel dx="782" dy="1502" grid="1" gridSize="10" guides="1" tooltips="1" connect="1" arrows="1" fold="1" page="1" pageScale="1" pageWidth="850" pageHeight="1100" math="0" shadow="0">
      <root>
        <mxCell id="0" />
        <mxCell id="1" parent="0" />
        <mxCell id="O35I1C1dOPDdeoK6O7DH-2" value="FOCUS" style="swimlane;startSize=23;" parent="1" vertex="1">
          <mxGeometry x="120" y="-330" width="350" height="170" as="geometry" />
        </mxCell>
        <mxCell id="O35I1C1dOPDdeoK6O7DH-11" value="set&amp;nbsp; fatp_sn" style="rounded=0;whiteSpace=wrap;html=1;" parent="O35I1C1dOPDdeoK6O7DH-2" vertex="1">
          <mxGeometry x="100" y="130" width="90" height="20" as="geometry" />
        </mxCell>
        <mxCell id="O35I1C1dOPDdeoK6O7DH-38" style="edgeStyle=orthogonalEdgeStyle;rounded=0;orthogonalLoop=1;jettySize=auto;html=1;exitX=0.25;exitY=0;exitDx=0;exitDy=0;entryX=0.317;entryY=1.044;entryDx=0;entryDy=0;entryPerimeter=0;" parent="O35I1C1dOPDdeoK6O7DH-2" source="O35I1C1dOPDdeoK6O7DH-24" target="O35I1C1dOPDdeoK6O7DH-37" edge="1">
          <mxGeometry relative="1" as="geometry" />
        </mxCell>
        <mxCell id="O35I1C1dOPDdeoK6O7DH-24" value="get fatp_sn" style="rounded=0;whiteSpace=wrap;html=1;" parent="O35I1C1dOPDdeoK6O7DH-2" vertex="1">
          <mxGeometry x="220" y="130" width="110" height="20" as="geometry" />
        </mxCell>
        <mxCell id="O35I1C1dOPDdeoK6O7DH-35" style="edgeStyle=orthogonalEdgeStyle;rounded=0;orthogonalLoop=1;jettySize=auto;html=1;exitX=0.5;exitY=1;exitDx=0;exitDy=0;entryX=0.75;entryY=0;entryDx=0;entryDy=0;" parent="O35I1C1dOPDdeoK6O7DH-2" source="O35I1C1dOPDdeoK6O7DH-33" target="O35I1C1dOPDdeoK6O7DH-11" edge="1">
          <mxGeometry relative="1" as="geometry" />
        </mxCell>
        <mxCell id="O35I1C1dOPDdeoK6O7DH-40" style="edgeStyle=orthogonalEdgeStyle;rounded=0;orthogonalLoop=1;jettySize=auto;html=1;exitX=0.5;exitY=0;exitDx=0;exitDy=0;entryX=0;entryY=0.5;entryDx=0;entryDy=0;" parent="O35I1C1dOPDdeoK6O7DH-2" source="O35I1C1dOPDdeoK6O7DH-33" target="O35I1C1dOPDdeoK6O7DH-39" edge="1">
          <mxGeometry relative="1" as="geometry" />
        </mxCell>
        <mxCell id="O35I1C1dOPDdeoK6O7DH-33" value="fatp_sn" style="shape=parallelogram;perimeter=parallelogramPerimeter;whiteSpace=wrap;html=1;fixedSize=1;" parent="O35I1C1dOPDdeoK6O7DH-2" vertex="1">
          <mxGeometry x="80" y="80" width="120" height="30" as="geometry" />
        </mxCell>
        <mxCell id="O35I1C1dOPDdeoK6O7DH-43" style="edgeStyle=orthogonalEdgeStyle;rounded=0;orthogonalLoop=1;jettySize=auto;html=1;exitX=0.75;exitY=0;exitDx=0;exitDy=0;entryX=1;entryY=0.5;entryDx=0;entryDy=0;" parent="O35I1C1dOPDdeoK6O7DH-2" source="O35I1C1dOPDdeoK6O7DH-37" target="O35I1C1dOPDdeoK6O7DH-39" edge="1">
          <mxGeometry relative="1" as="geometry" />
        </mxCell>
        <mxCell id="O35I1C1dOPDdeoK6O7DH-37" value="fatp_sn" style="shape=parallelogram;perimeter=parallelogramPerimeter;whiteSpace=wrap;html=1;fixedSize=1;" parent="O35I1C1dOPDdeoK6O7DH-2" vertex="1">
          <mxGeometry x="200" y="80" width="120" height="30" as="geometry" />
        </mxCell>
        <mxCell id="O35I1C1dOPDdeoK6O7DH-39" value="compare" style="rounded=0;whiteSpace=wrap;html=1;" parent="O35I1C1dOPDdeoK6O7DH-2" vertex="1">
          <mxGeometry x="160" y="30" width="90" height="30" as="geometry" />
        </mxCell>
        <mxCell id="O35I1C1dOPDdeoK6O7DH-4" value="BBB SN FLOW" style="text;html=1;strokeColor=none;fillColor=none;align=center;verticalAlign=middle;whiteSpace=wrap;rounded=0;" parent="1" vertex="1">
          <mxGeometry x="40" y="-430" width="140" height="30" as="geometry" />
        </mxCell>
        <mxCell id="O35I1C1dOPDdeoK6O7DH-12" value="SF" style="swimlane;" parent="1" vertex="1">
          <mxGeometry x="490" y="-530" width="1080" height="110" as="geometry" />
        </mxCell>
        <mxCell id="O35I1C1dOPDdeoK6O7DH-78" value="mlb_sn" style="shape=parallelogram;perimeter=parallelogramPerimeter;whiteSpace=wrap;html=1;fixedSize=1;" parent="O35I1C1dOPDdeoK6O7DH-12" vertex="1">
          <mxGeometry x="205.5" y="30" width="120" height="30" as="geometry" />
        </mxCell>
        <mxCell id="O35I1C1dOPDdeoK6O7DH-71" value="VERIFY_SN(commend2)" style="rounded=0;whiteSpace=wrap;html=1;" parent="O35I1C1dOPDdeoK6O7DH-12" vertex="1">
          <mxGeometry x="10.5" y="30" width="150" height="20" as="geometry" />
        </mxCell>
        <mxCell id="O35I1C1dOPDdeoK6O7DH-84" value="fatp_sn" style="shape=parallelogram;perimeter=parallelogramPerimeter;whiteSpace=wrap;html=1;fixedSize=1;" parent="O35I1C1dOPDdeoK6O7DH-12" vertex="1">
          <mxGeometry x="325.5" y="30" width="120" height="30" as="geometry" />
        </mxCell>
        <mxCell id="O35I1C1dOPDdeoK6O7DH-85" value="hw_version" style="shape=parallelogram;perimeter=parallelogramPerimeter;whiteSpace=wrap;html=1;fixedSize=1;" parent="O35I1C1dOPDdeoK6O7DH-12" vertex="1">
          <mxGeometry x="435.5" y="30" width="120" height="30" as="geometry" />
        </mxCell>
        <mxCell id="O35I1C1dOPDdeoK6O7DH-98" value="SF arrange csn" style="rounded=0;whiteSpace=wrap;html=1;" parent="O35I1C1dOPDdeoK6O7DH-12" vertex="1">
          <mxGeometry x="555.5" y="35" width="150" height="20" as="geometry" />
        </mxCell>
        <mxCell id="O35I1C1dOPDdeoK6O7DH-102" value="UUID" style="shape=parallelogram;perimeter=parallelogramPerimeter;whiteSpace=wrap;html=1;fixedSize=1;" parent="O35I1C1dOPDdeoK6O7DH-12" vertex="1">
          <mxGeometry x="800" y="70" width="120" height="30" as="geometry" />
        </mxCell>
        <mxCell id="O35I1C1dOPDdeoK6O7DH-125" value="csn" style="shape=parallelogram;perimeter=parallelogramPerimeter;whiteSpace=wrap;html=1;fixedSize=1;" parent="O35I1C1dOPDdeoK6O7DH-12" vertex="1">
          <mxGeometry x="630" y="60" width="90" height="30" as="geometry" />
        </mxCell>
        <mxCell id="O35I1C1dOPDdeoK6O7DH-19" value="DUT" style="swimlane;" parent="1" vertex="1">
          <mxGeometry x="120" y="-140" width="920" height="160" as="geometry" />
        </mxCell>
        <mxCell id="O35I1C1dOPDdeoK6O7DH-22" value="fatp_sn" style="shape=parallelogram;perimeter=parallelogramPerimeter;whiteSpace=wrap;html=1;fixedSize=1;" parent="O35I1C1dOPDdeoK6O7DH-19" vertex="1">
          <mxGeometry x="60" y="30" width="390" height="30" as="geometry" />
        </mxCell>
        <mxCell id="O35I1C1dOPDdeoK6O7DH-86" value="mlb_sn" style="shape=parallelogram;perimeter=parallelogramPerimeter;whiteSpace=wrap;html=1;fixedSize=1;" parent="O35I1C1dOPDdeoK6O7DH-19" vertex="1">
          <mxGeometry x="440" y="30" width="120" height="30" as="geometry" />
        </mxCell>
        <mxCell id="O35I1C1dOPDdeoK6O7DH-87" value="pcbahwver" style="shape=parallelogram;perimeter=parallelogramPerimeter;whiteSpace=wrap;html=1;fixedSize=1;" parent="O35I1C1dOPDdeoK6O7DH-19" vertex="1">
          <mxGeometry x="560" y="30" width="340" height="30" as="geometry" />
        </mxCell>
        <mxCell id="O35I1C1dOPDdeoK6O7DH-95" value="csn" style="shape=parallelogram;perimeter=parallelogramPerimeter;whiteSpace=wrap;html=1;fixedSize=1;" parent="O35I1C1dOPDdeoK6O7DH-19" vertex="1">
          <mxGeometry x="760" y="80" width="120" height="30" as="geometry" />
        </mxCell>
        <mxCell id="O35I1C1dOPDdeoK6O7DH-106" value="csn(old)" style="shape=parallelogram;perimeter=parallelogramPerimeter;whiteSpace=wrap;html=1;fixedSize=1;" parent="O35I1C1dOPDdeoK6O7DH-19" vertex="1">
          <mxGeometry x="750" y="120" width="120" height="30" as="geometry" />
        </mxCell>
        <mxCell id="O35I1C1dOPDdeoK6O7DH-108" value="UUID" style="shape=parallelogram;perimeter=parallelogramPerimeter;whiteSpace=wrap;html=1;fixedSize=1;" parent="O35I1C1dOPDdeoK6O7DH-19" vertex="1">
          <mxGeometry x="620" y="120" width="120" height="30" as="geometry" />
        </mxCell>
        <mxCell id="O35I1C1dOPDdeoK6O7DH-46" style="edgeStyle=orthogonalEdgeStyle;rounded=0;orthogonalLoop=1;jettySize=auto;html=1;exitX=1;exitY=0.5;exitDx=0;exitDy=0;entryX=0;entryY=0.25;entryDx=0;entryDy=0;" parent="1" source="O35I1C1dOPDdeoK6O7DH-25" target="O35I1C1dOPDdeoK6O7DH-33" edge="1">
          <mxGeometry relative="1" as="geometry" />
        </mxCell>
        <mxCell id="O35I1C1dOPDdeoK6O7DH-25" value="scan_lable" style="rounded=0;whiteSpace=wrap;html=1;" parent="1" vertex="1">
          <mxGeometry x="125.5" y="-251" width="74.5" height="21" as="geometry" />
        </mxCell>
        <mxCell id="O35I1C1dOPDdeoK6O7DH-45" style="edgeStyle=orthogonalEdgeStyle;rounded=0;orthogonalLoop=1;jettySize=auto;html=1;exitX=0.5;exitY=1;exitDx=0;exitDy=0;" parent="1" edge="1">
          <mxGeometry relative="1" as="geometry">
            <mxPoint x="153" y="-222" as="sourcePoint" />
            <mxPoint x="153" y="-222" as="targetPoint" />
          </mxGeometry>
        </mxCell>
        <mxCell id="O35I1C1dOPDdeoK6O7DH-47" value="FUNCTION" style="swimlane;startSize=23;" parent="1" vertex="1">
          <mxGeometry x="480" y="-360" width="1110" height="210" as="geometry" />
        </mxCell>
        <mxCell id="O35I1C1dOPDdeoK6O7DH-61" style="edgeStyle=orthogonalEdgeStyle;rounded=0;orthogonalLoop=1;jettySize=auto;html=1;exitX=0.5;exitY=0;exitDx=0;exitDy=0;" parent="O35I1C1dOPDdeoK6O7DH-47" source="O35I1C1dOPDdeoK6O7DH-48" target="O35I1C1dOPDdeoK6O7DH-53" edge="1">
          <mxGeometry relative="1" as="geometry" />
        </mxCell>
        <mxCell id="O35I1C1dOPDdeoK6O7DH-48" value="get fatp_sn" style="rounded=0;whiteSpace=wrap;html=1;" parent="O35I1C1dOPDdeoK6O7DH-47" vertex="1">
          <mxGeometry x="37" y="146" width="103" height="20" as="geometry" />
        </mxCell>
        <mxCell id="O35I1C1dOPDdeoK6O7DH-72" value="SERIAL_NUMBER01" style="swimlane;" parent="O35I1C1dOPDdeoK6O7DH-47" vertex="1">
          <mxGeometry x="19" y="30" width="135.5" height="90" as="geometry" />
        </mxCell>
        <mxCell id="O35I1C1dOPDdeoK6O7DH-53" value="fatp_sn" style="shape=parallelogram;perimeter=parallelogramPerimeter;whiteSpace=wrap;html=1;fixedSize=1;" parent="O35I1C1dOPDdeoK6O7DH-72" vertex="1">
          <mxGeometry x="7.5" y="40" width="120" height="30" as="geometry" />
        </mxCell>
        <mxCell id="O35I1C1dOPDdeoK6O7DH-75" value="SERIAL_NUMBER02" style="swimlane;" parent="O35I1C1dOPDdeoK6O7DH-47" vertex="1">
          <mxGeometry x="160" y="30" width="135.5" height="90" as="geometry" />
        </mxCell>
        <mxCell id="O35I1C1dOPDdeoK6O7DH-76" value="fatp_sn" style="shape=parallelogram;perimeter=parallelogramPerimeter;whiteSpace=wrap;html=1;fixedSize=1;" parent="O35I1C1dOPDdeoK6O7DH-75" vertex="1">
          <mxGeometry x="7.5" y="40" width="120" height="30" as="geometry" />
        </mxCell>
        <mxCell id="O35I1C1dOPDdeoK6O7DH-83" style="edgeStyle=orthogonalEdgeStyle;rounded=0;orthogonalLoop=1;jettySize=auto;html=1;exitX=0.5;exitY=1;exitDx=0;exitDy=0;entryX=0.5;entryY=0;entryDx=0;entryDy=0;" parent="O35I1C1dOPDdeoK6O7DH-47" source="O35I1C1dOPDdeoK6O7DH-79" target="O35I1C1dOPDdeoK6O7DH-82" edge="1">
          <mxGeometry relative="1" as="geometry" />
        </mxCell>
        <mxCell id="O35I1C1dOPDdeoK6O7DH-79" value="get mlb_sn" style="rounded=0;whiteSpace=wrap;html=1;" parent="O35I1C1dOPDdeoK6O7DH-47" vertex="1">
          <mxGeometry x="192.5" y="126" width="103" height="20" as="geometry" />
        </mxCell>
        <mxCell id="O35I1C1dOPDdeoK6O7DH-80" style="edgeStyle=orthogonalEdgeStyle;rounded=0;orthogonalLoop=1;jettySize=auto;html=1;exitX=0.5;exitY=1;exitDx=0;exitDy=0;entryX=0.5;entryY=0;entryDx=0;entryDy=0;" parent="O35I1C1dOPDdeoK6O7DH-47" source="O35I1C1dOPDdeoK6O7DH-76" target="O35I1C1dOPDdeoK6O7DH-79" edge="1">
          <mxGeometry relative="1" as="geometry" />
        </mxCell>
        <mxCell id="O35I1C1dOPDdeoK6O7DH-82" value="mlb_sn" style="shape=parallelogram;perimeter=parallelogramPerimeter;whiteSpace=wrap;html=1;fixedSize=1;" parent="O35I1C1dOPDdeoK6O7DH-47" vertex="1">
          <mxGeometry x="184" y="166" width="120" height="30" as="geometry" />
        </mxCell>
        <mxCell id="O35I1C1dOPDdeoK6O7DH-91" style="edgeStyle=orthogonalEdgeStyle;rounded=0;orthogonalLoop=1;jettySize=auto;html=1;exitX=0.5;exitY=0;exitDx=0;exitDy=0;entryX=0.5;entryY=1;entryDx=0;entryDy=0;" parent="O35I1C1dOPDdeoK6O7DH-47" source="O35I1C1dOPDdeoK6O7DH-88" target="O35I1C1dOPDdeoK6O7DH-90" edge="1">
          <mxGeometry relative="1" as="geometry" />
        </mxCell>
        <mxCell id="O35I1C1dOPDdeoK6O7DH-88" value="BumblebeeHwVerTrans.bat&amp;nbsp;" style="rounded=0;whiteSpace=wrap;html=1;" parent="O35I1C1dOPDdeoK6O7DH-47" vertex="1">
          <mxGeometry x="350" y="130" width="160" height="20" as="geometry" />
        </mxCell>
        <mxCell id="O35I1C1dOPDdeoK6O7DH-94" style="edgeStyle=orthogonalEdgeStyle;rounded=0;orthogonalLoop=1;jettySize=auto;html=1;exitX=0.5;exitY=0;exitDx=0;exitDy=0;entryX=0.369;entryY=1.05;entryDx=0;entryDy=0;entryPerimeter=0;" parent="O35I1C1dOPDdeoK6O7DH-47" source="O35I1C1dOPDdeoK6O7DH-90" target="O35I1C1dOPDdeoK6O7DH-93" edge="1">
          <mxGeometry relative="1" as="geometry" />
        </mxCell>
        <mxCell id="O35I1C1dOPDdeoK6O7DH-90" value="hw_version" style="shape=parallelogram;perimeter=parallelogramPerimeter;whiteSpace=wrap;html=1;fixedSize=1;" parent="O35I1C1dOPDdeoK6O7DH-47" vertex="1">
          <mxGeometry x="360" y="80" width="120" height="30" as="geometry" />
        </mxCell>
        <mxCell id="O35I1C1dOPDdeoK6O7DH-93" value="upload" style="rounded=0;whiteSpace=wrap;html=1;" parent="O35I1C1dOPDdeoK6O7DH-47" vertex="1">
          <mxGeometry x="360" y="40" width="90" height="20" as="geometry" />
        </mxCell>
        <mxCell id="O35I1C1dOPDdeoK6O7DH-104" style="edgeStyle=orthogonalEdgeStyle;rounded=0;orthogonalLoop=1;jettySize=auto;html=1;exitX=0.5;exitY=1;exitDx=0;exitDy=0;entryX=0.5;entryY=0;entryDx=0;entryDy=0;" parent="O35I1C1dOPDdeoK6O7DH-47" target="O35I1C1dOPDdeoK6O7DH-103" edge="1">
          <mxGeometry relative="1" as="geometry">
            <mxPoint x="601.5" y="140" as="sourcePoint" />
          </mxGeometry>
        </mxCell>
        <mxCell id="O35I1C1dOPDdeoK6O7DH-103" value="set_csn" style="rounded=0;whiteSpace=wrap;html=1;" parent="O35I1C1dOPDdeoK6O7DH-47" vertex="1">
          <mxGeometry x="550" y="160" width="60" height="20" as="geometry" />
        </mxCell>
        <mxCell id="O35I1C1dOPDdeoK6O7DH-107" value="set_uuid" style="rounded=0;whiteSpace=wrap;html=1;" parent="O35I1C1dOPDdeoK6O7DH-47" vertex="1">
          <mxGeometry x="795" y="65" width="103" height="20" as="geometry" />
        </mxCell>
        <mxCell id="O35I1C1dOPDdeoK6O7DH-122" style="edgeStyle=orthogonalEdgeStyle;rounded=0;orthogonalLoop=1;jettySize=auto;html=1;exitX=0.5;exitY=0;exitDx=0;exitDy=0;entryX=0.25;entryY=1;entryDx=0;entryDy=0;" parent="O35I1C1dOPDdeoK6O7DH-47" source="O35I1C1dOPDdeoK6O7DH-112" target="O35I1C1dOPDdeoK6O7DH-121" edge="1">
          <mxGeometry relative="1" as="geometry" />
        </mxCell>
        <mxCell id="O35I1C1dOPDdeoK6O7DH-112" value="get_csn" style="rounded=0;whiteSpace=wrap;html=1;" parent="O35I1C1dOPDdeoK6O7DH-47" vertex="1">
          <mxGeometry x="620" y="160" width="70" height="20" as="geometry" />
        </mxCell>
        <mxCell id="O35I1C1dOPDdeoK6O7DH-115" value="csn" style="shape=parallelogram;perimeter=parallelogramPerimeter;whiteSpace=wrap;html=1;fixedSize=1;" parent="O35I1C1dOPDdeoK6O7DH-47" vertex="1">
          <mxGeometry x="540" y="110" width="90" height="30" as="geometry" />
        </mxCell>
        <mxCell id="O35I1C1dOPDdeoK6O7DH-123" style="edgeStyle=orthogonalEdgeStyle;rounded=0;orthogonalLoop=1;jettySize=auto;html=1;exitX=0.25;exitY=0;exitDx=0;exitDy=0;entryX=0.5;entryY=1;entryDx=0;entryDy=0;" parent="O35I1C1dOPDdeoK6O7DH-47" source="O35I1C1dOPDdeoK6O7DH-119" target="O35I1C1dOPDdeoK6O7DH-121" edge="1">
          <mxGeometry relative="1" as="geometry" />
        </mxCell>
        <mxCell id="O35I1C1dOPDdeoK6O7DH-119" value="get_csn" style="rounded=0;whiteSpace=wrap;html=1;" parent="O35I1C1dOPDdeoK6O7DH-47" vertex="1">
          <mxGeometry x="700" y="160" width="70" height="20" as="geometry" />
        </mxCell>
        <mxCell id="O35I1C1dOPDdeoK6O7DH-121" value="upload_csn" style="rounded=0;whiteSpace=wrap;html=1;" parent="O35I1C1dOPDdeoK6O7DH-47" vertex="1">
          <mxGeometry x="660" y="115" width="110" height="20" as="geometry" />
        </mxCell>
        <mxCell id="O35I1C1dOPDdeoK6O7DH-57" style="edgeStyle=orthogonalEdgeStyle;rounded=0;orthogonalLoop=1;jettySize=auto;html=1;exitX=0;exitY=0.25;exitDx=0;exitDy=0;entryX=0;entryY=0.5;entryDx=0;entryDy=0;" parent="1" source="O35I1C1dOPDdeoK6O7DH-22" target="O35I1C1dOPDdeoK6O7DH-11" edge="1">
          <mxGeometry relative="1" as="geometry" />
        </mxCell>
        <mxCell id="O35I1C1dOPDdeoK6O7DH-59" style="edgeStyle=orthogonalEdgeStyle;rounded=0;orthogonalLoop=1;jettySize=auto;html=1;exitX=0.5;exitY=0;exitDx=0;exitDy=0;entryX=0.5;entryY=1;entryDx=0;entryDy=0;" parent="1" source="O35I1C1dOPDdeoK6O7DH-22" target="O35I1C1dOPDdeoK6O7DH-24" edge="1">
          <mxGeometry relative="1" as="geometry" />
        </mxCell>
        <mxCell id="O35I1C1dOPDdeoK6O7DH-60" style="edgeStyle=orthogonalEdgeStyle;rounded=0;orthogonalLoop=1;jettySize=auto;html=1;exitX=0.75;exitY=0;exitDx=0;exitDy=0;" parent="1" source="O35I1C1dOPDdeoK6O7DH-22" target="O35I1C1dOPDdeoK6O7DH-48" edge="1">
          <mxGeometry relative="1" as="geometry" />
        </mxCell>
        <mxCell id="O35I1C1dOPDdeoK6O7DH-73" style="edgeStyle=orthogonalEdgeStyle;rounded=0;orthogonalLoop=1;jettySize=auto;html=1;exitX=0;exitY=0.5;exitDx=0;exitDy=0;entryX=0;entryY=0.5;entryDx=0;entryDy=0;" parent="1" source="O35I1C1dOPDdeoK6O7DH-53" target="O35I1C1dOPDdeoK6O7DH-71" edge="1">
          <mxGeometry relative="1" as="geometry" />
        </mxCell>
        <mxCell id="O35I1C1dOPDdeoK6O7DH-77" style="edgeStyle=orthogonalEdgeStyle;rounded=0;orthogonalLoop=1;jettySize=auto;html=1;exitX=1;exitY=0.25;exitDx=0;exitDy=0;" parent="1" source="O35I1C1dOPDdeoK6O7DH-71" target="O35I1C1dOPDdeoK6O7DH-76" edge="1">
          <mxGeometry relative="1" as="geometry">
            <Array as="points">
              <mxPoint x="680" y="-495" />
            </Array>
          </mxGeometry>
        </mxCell>
        <mxCell id="O35I1C1dOPDdeoK6O7DH-81" style="edgeStyle=orthogonalEdgeStyle;rounded=0;orthogonalLoop=1;jettySize=auto;html=1;exitX=1;exitY=0.5;exitDx=0;exitDy=0;entryX=1;entryY=0.75;entryDx=0;entryDy=0;" parent="1" source="O35I1C1dOPDdeoK6O7DH-78" target="O35I1C1dOPDdeoK6O7DH-79" edge="1">
          <mxGeometry relative="1" as="geometry" />
        </mxCell>
        <mxCell id="O35I1C1dOPDdeoK6O7DH-89" style="edgeStyle=orthogonalEdgeStyle;rounded=0;orthogonalLoop=1;jettySize=auto;html=1;exitX=0.5;exitY=0;exitDx=0;exitDy=0;entryX=0.5;entryY=1;entryDx=0;entryDy=0;" parent="1" source="O35I1C1dOPDdeoK6O7DH-87" target="O35I1C1dOPDdeoK6O7DH-88" edge="1">
          <mxGeometry relative="1" as="geometry" />
        </mxCell>
        <mxCell id="O35I1C1dOPDdeoK6O7DH-92" style="edgeStyle=orthogonalEdgeStyle;rounded=0;orthogonalLoop=1;jettySize=auto;html=1;exitX=0.5;exitY=0;exitDx=0;exitDy=0;entryX=0.5;entryY=1;entryDx=0;entryDy=0;" parent="1" source="O35I1C1dOPDdeoK6O7DH-93" target="O35I1C1dOPDdeoK6O7DH-85" edge="1">
          <mxGeometry relative="1" as="geometry" />
        </mxCell>
        <mxCell id="O35I1C1dOPDdeoK6O7DH-100" style="edgeStyle=orthogonalEdgeStyle;rounded=0;orthogonalLoop=1;jettySize=auto;html=1;exitX=0.25;exitY=1;exitDx=0;exitDy=0;" parent="1" source="O35I1C1dOPDdeoK6O7DH-98" target="O35I1C1dOPDdeoK6O7DH-115" edge="1">
          <mxGeometry relative="1" as="geometry">
            <mxPoint x="1080" y="-445" as="sourcePoint" />
            <mxPoint x="1030" y="-225" as="targetPoint" />
          </mxGeometry>
        </mxCell>
        <mxCell id="O35I1C1dOPDdeoK6O7DH-109" style="edgeStyle=orthogonalEdgeStyle;rounded=0;orthogonalLoop=1;jettySize=auto;html=1;exitX=0;exitY=0.25;exitDx=0;exitDy=0;entryX=0.5;entryY=0;entryDx=0;entryDy=0;" parent="1" source="O35I1C1dOPDdeoK6O7DH-102" target="O35I1C1dOPDdeoK6O7DH-107" edge="1">
          <mxGeometry relative="1" as="geometry" />
        </mxCell>
        <mxCell id="O35I1C1dOPDdeoK6O7DH-110" style="edgeStyle=orthogonalEdgeStyle;rounded=0;orthogonalLoop=1;jettySize=auto;html=1;exitX=0.5;exitY=1;exitDx=0;exitDy=0;entryX=0.5;entryY=1;entryDx=0;entryDy=0;" parent="1" source="O35I1C1dOPDdeoK6O7DH-107" target="O35I1C1dOPDdeoK6O7DH-108" edge="1">
          <mxGeometry relative="1" as="geometry" />
        </mxCell>
        <mxCell id="O35I1C1dOPDdeoK6O7DH-113" style="edgeStyle=orthogonalEdgeStyle;rounded=0;orthogonalLoop=1;jettySize=auto;html=1;exitX=1;exitY=0.75;exitDx=0;exitDy=0;" parent="1" source="O35I1C1dOPDdeoK6O7DH-95" target="O35I1C1dOPDdeoK6O7DH-112" edge="1">
          <mxGeometry relative="1" as="geometry" />
        </mxCell>
        <mxCell id="O35I1C1dOPDdeoK6O7DH-116" style="edgeStyle=orthogonalEdgeStyle;rounded=0;orthogonalLoop=1;jettySize=auto;html=1;exitX=0.5;exitY=1;exitDx=0;exitDy=0;entryX=0.5;entryY=0;entryDx=0;entryDy=0;" parent="1" source="O35I1C1dOPDdeoK6O7DH-103" target="O35I1C1dOPDdeoK6O7DH-95" edge="1">
          <mxGeometry relative="1" as="geometry">
            <mxPoint x="930" y="-20" as="targetPoint" />
          </mxGeometry>
        </mxCell>
        <mxCell id="O35I1C1dOPDdeoK6O7DH-120" style="edgeStyle=orthogonalEdgeStyle;rounded=0;orthogonalLoop=1;jettySize=auto;html=1;exitX=1;exitY=0.5;exitDx=0;exitDy=0;entryX=0.5;entryY=1;entryDx=0;entryDy=0;" parent="1" source="O35I1C1dOPDdeoK6O7DH-106" target="O35I1C1dOPDdeoK6O7DH-119" edge="1">
          <mxGeometry relative="1" as="geometry" />
        </mxCell>
        <mxCell id="O35I1C1dOPDdeoK6O7DH-124" style="edgeStyle=orthogonalEdgeStyle;rounded=0;orthogonalLoop=1;jettySize=auto;html=1;exitX=0.5;exitY=0;exitDx=0;exitDy=0;" parent="1" source="O35I1C1dOPDdeoK6O7DH-121" edge="1">
          <mxGeometry relative="1" as="geometry">
            <mxPoint x="1160" y="-440" as="targetPoint" />
          </mxGeometry>
        </mxCell>
      </root>
    </mxGraphModel>
  </diagram>
</mxfile>
